<svg id="Capa_1" enable-background="new 0 0 512 512" height="512" viewBox="0 0 512 512" width="512" xmlns="http://www.w3.org/2000/svg"><g><g><path d="m202.502 494.325c2.925 1.156 6.042 1.75 9.188 1.75h214.855 2.373c18.677 0 31.753-15.421 31.189-34.227-.545-18.173-14.399-32.184-32.581-32.184h25.879c18.568 0 33.866-15.056 33.62-33.622-.241-18.147-13.003-32.789-31.203-32.789h15.473c18.2 0 30.962-14.641 31.203-32.787.247-18.567-15.052-33.624-33.62-33.624h-8.145c18.182 0 32.038-14.01 32.582-32.184.565-18.806-12.512-34.227-31.19-34.227h-164.906c-2.977 0-5.294-2.585-4.97-5.544l13.929-127.212c2.916-26.633-17.941-49.898-44.733-49.898-11.542 0-21.023 8.956-21.872 20.467-10.522 142.781-128.739 206.583-128.739 206.583l-10 116.695 10 66.581z" fill="#fed2a4"/><path d="m7.5 481.005c0 5.523 4.477 10 10 10h73.334c5.523 0 10-4.477 10-10v-229.084c0-5.523-4.477-10-10-10h-73.334c-5.523 0-10 4.477-10 10z" fill="#95c7f8"/><path d="m100.834 241.921h-30c5.523 0 10 4.477 10 10v229.083c0 5.523-4.477 10-10 10h30c5.523 0 10-4.477 10-10v-229.083c0-5.522-4.477-10-10-10z" fill="#75b5f8"/><path d="m398.918 496.075h27.627 2.373c18.677 0 33.753-15.421 33.189-34.227-.545-18.173-16.399-32.184-34.581-32.184h27.64c18.619 0 34.21-15.237 33.854-33.852-.345-18.04-15.076-32.559-33.199-32.559h15.473c18.122 0 32.854-14.517 33.199-32.557.357-18.616-15.236-33.854-33.855-33.854h-9.907c18.182 0 34.038-14.01 34.582-32.184.565-18.806-14.512-34.227-33.19-34.227h-30c18.678 0 33.755 15.421 33.19 34.227-.015.505-.042 1.008-.081 1.507-1.02 13.187-12.403 23.178-25.63 23.178l-65.555 1c-4.107 0-6.688 2.165-6.811 6.27-.127 4.247 2.278 6.73 6.497 6.73l75.025 1c13.408 0 24.813 10.267 25.674 23.648.058.893.078 1.796.061 2.706-.01.509-.031 1.016-.064 1.519-.86 13.338-12.298 23.538-25.663 23.538l-74.718 1c-4.107 0-6.688 2.165-6.811 6.27-.127 4.247 2.278 6.73 6.497 6.73l59.559 1c13.366 0 24.804 10.2 25.664 23.538.033.504.054 1.011.063 1.521.017.91-.003 1.812-.061 2.705-.861 13.38-12.266 23.647-25.674 23.647l-59.237 1c-4.107 0-6.688 2.165-6.811 6.27-.127 4.247 2.278 6.73 6.497 6.73l32.663 1c13.226 0 24.609 9.99 25.63 23.177.039.499.066 1.002.081 1.508.563 18.804-14.513 34.225-33.19 34.225z" fill="#ffbd86"/><ellipse cx="366.234" cy="175.379" fill="#ffe187" rx="15.139" ry="15.138" transform="matrix(.099 -.995 .995 .099 155.621 522.55)"/><g><g><g><path d="m366.387 134.516c-8.276 0-14.985-6.709-14.985-14.985v-88.62c0-8.276 6.709-14.985 14.985-14.985s14.985 6.709 14.985 14.985v88.62c.001 8.276-6.708 14.985-14.985 14.985z" fill="#ffe187"/></g></g></g><ellipse cx="431.949" cy="175.379" fill="#ffe187" rx="15.139" ry="15.138" transform="matrix(.099 -.995 .995 .099 214.861 587.945)"/><g><g><g><path d="m432.103 134.516c-8.276 0-14.985-6.709-14.985-14.985v-88.62c0-8.276 6.709-14.985 14.985-14.985s14.985 6.709 14.985 14.985v88.62c0 8.276-6.709 14.985-14.985 14.985z" fill="#ffe187"/></g></g></g></g><g><path d="m366.234 198.017c12.483 0 22.639-10.155 22.639-22.638s-10.155-22.639-22.639-22.639-22.639 10.155-22.639 22.639c.001 12.483 10.156 22.638 22.639 22.638zm0-30.276c4.212 0 7.639 3.427 7.639 7.639s-3.427 7.638-7.639 7.638-7.639-3.426-7.639-7.638c.001-4.212 3.427-7.639 7.639-7.639z"/><path d="m366.388 142.016c12.398 0 22.485-10.087 22.485-22.485v-88.62c0-12.399-10.087-22.486-22.485-22.486s-22.485 10.087-22.485 22.486v88.62c-.001 12.399 10.086 22.485 22.485 22.485zm-7.486-111.105c0-4.128 3.358-7.486 7.485-7.486s7.485 3.358 7.485 7.486v88.62c0 4.128-3.358 7.485-7.485 7.485s-7.485-3.357-7.485-7.485z"/><path d="m431.949 198.017c12.483 0 22.639-10.155 22.639-22.638s-10.155-22.639-22.639-22.639c-12.482 0-22.638 10.155-22.638 22.639 0 12.483 10.156 22.638 22.638 22.638zm0-30.276c4.212 0 7.639 3.427 7.639 7.639s-3.427 7.638-7.639 7.638-7.638-3.426-7.638-7.638 3.426-7.639 7.638-7.639z"/><path d="m66.667 451.638v-170.349c0-4.143-3.357-7.5-7.5-7.5s-7.5 3.357-7.5 7.5v170.349c0 4.143 3.357 7.5 7.5 7.5s7.5-3.358 7.5-7.5z"/><path d="m372.891 422.163c-4.143 0-7.5 3.357-7.5 7.5s3.357 7.5 7.5 7.5h54.636c14.522 0 26.673 11.174 27.084 24.909.211 7.026-2.362 13.666-7.245 18.698-4.885 5.033-11.436 7.805-18.447 7.805h-217.229c-2.211 0-4.375-.412-6.433-1.226l-86.924-34.349v-173.861c9.241-5.59 33.335-21.495 58.462-49.006 28.964-31.711 64.664-85.444 70.257-161.34.559-7.581 6.881-13.519 14.393-13.519 10.642 0 20.818 4.545 27.922 12.468 7.104 7.924 10.514 18.536 9.355 29.114l-13.931 127.214c-.385 3.526.753 7.062 3.12 9.703 2.368 2.641 5.76 4.155 9.307 4.155h25.726c4.143 0 7.5-3.357 7.5-7.5s-3.357-7.5-7.5-7.5h-22.938l13.627-124.438c1.622-14.809-3.152-29.666-13.097-40.76-9.945-11.093-24.193-17.455-39.091-17.455-15.325 0-28.219 12.042-29.352 27.416-5.26 71.373-38.791 122.004-65.993 151.91-18.469 20.303-36.618 34.103-47.767 41.672v-9.351c0-9.649-7.851-17.5-17.5-17.5h-43.643c-4.143 0-7.5 3.357-7.5 7.5s3.357 7.5 7.5 7.5h43.644c1.379 0 2.5 1.121 2.5 2.5v229.083c0 1.379-1.121 2.5-2.5 2.5h-83.334c-1.379 0-2.5-1.121-2.5-2.5v-229.083c0-1.379 1.121-2.5 2.5-2.5h7.004c4.143 0 7.5-3.357 7.5-7.5s-3.357-7.5-7.5-7.5h-7.004c-9.649 0-17.5 7.851-17.5 17.5v229.083c0 9.649 7.851 17.5 17.5 17.5h83.334c9.649 0 17.5-7.851 17.5-17.5v-11.875l81.411 32.17c3.82 1.51 7.839 2.275 11.945 2.275h217.228c11.104 0 21.478-4.389 29.212-12.358 7.732-7.968 11.808-18.478 11.475-29.594-.281-9.353-3.929-17.957-9.788-24.727 9.417-1.082 18.36-5.412 25.065-12.247 7.712-7.86 11.845-18.153 11.638-28.982-.202-10.578-4.526-20.211-11.407-27.361 15.363-5.618 26.552-20.293 26.88-37.467.207-10.828-3.926-21.122-11.638-28.983-3.308-3.372-7.161-6.135-11.347-8.198 8.176-7.204 13.463-17.439 13.803-28.775.333-11.115-3.741-21.625-11.474-29.593-7.734-7.97-18.108-12.359-29.213-12.359h-106.493c-4.143 0-7.5 3.357-7.5 7.5s3.357 7.5 7.5 7.5h106.493c7.013 0 13.565 2.772 18.449 7.806 4.882 5.031 7.454 11.671 7.243 18.697-.41 13.734-12.561 24.908-27.085 24.908h-87.841c-4.143 0-7.5 3.357-7.5 7.5s3.357 7.5 7.5 7.5h97.748c7.081 0 14.009 2.923 19.008 8.019 4.868 4.963 7.478 11.424 7.348 18.192-.266 13.896-11.794 25.2-25.7 25.2h-98.403c-4.143 0-7.5 3.357-7.5 7.5s3.357 7.5 7.5 7.5h82.931c13.906 0 25.435 11.306 25.7 25.202.13 6.769-2.48 13.228-7.348 18.191-4.999 5.095-11.927 8.018-19.008 8.018h-82.275z"/><path d="m432.103 142.016c12.398 0 22.485-10.087 22.485-22.485v-88.62c0-12.399-10.087-22.486-22.485-22.486s-22.485 10.087-22.485 22.486v27.966c0 4.142 3.357 7.5 7.5 7.5s7.5-3.358 7.5-7.5v-27.966c0-4.128 3.358-7.486 7.485-7.486s7.485 3.358 7.485 7.486v88.62c0 4.128-3.358 7.485-7.485 7.485s-7.485-3.357-7.485-7.485v-27.968c0-4.143-3.357-7.5-7.5-7.5s-7.5 3.357-7.5 7.5v27.968c-.001 12.399 10.086 22.485 22.485 22.485z"/></g></g></svg>